# xmcd CD database file generated by Grip 3.3.1
# 
# Track frame offsets:
#       150
#       15281
#       36641
#       47670
#       64257
#       85761
#       104785
#       114465
#       131707
#       156074
# 
# Disc length: 2285 seconds
# 
# Revision: 4
# Processed by: cddbd v1.5.2PL0 Copyright (c) Steve Scherf et al.
# Submitted via: Grip 3.3.1
# 
DISCID=8408eb0a
DTITLE=Original Animals - Before We Were So Rudely Interrupted
DYEAR=1900
DGENRE=
TTITLE0=Brother Bill (Last Clean Shirt)
TTITLE1=It's All Over Now Baby Blue
TTITLE2=Fire On The Sun
TTITLE3=As The Crow Flies
TTITLE4=Please Send Me Someone To Love
TTITLE5=Many Rivers To Cross
TTITLE6=Just A Little Bit
TTITLE7=Riverside County
TTITLE8=Lonely Avenue
TTITLE9=The Fool
EXTD=
EXTT0=
EXTT1=
EXTT2=
EXTT3=
EXTT4=
EXTT5=
EXTT6=
EXTT7=
EXTT8=
EXTT9=
PLAYORDER=
